# xmcd
#
# Track frame offsets: 
#        150
#        17207
#        58465
#        62305
#        71047
#        81065
#        88097
#        104017
#        132920
#        143162
#        157060
#        164755
#        195580
#        210592
#        218942
#        223310
#        241162
#        245955
#        258742
#        270045
#        303140
#        334607
#
# Disc length: 4685 seconds
#
# Revision: 0
# Processed by: cddbd v1.5.2PL0 Copyright (c) Steve Scherf et al.
# Submitted via: ExactAudioCopyFreeDBPlugin 1.0
#
DISCID=55124b16
DTITLE=Salieri - Falstaff cd2
DYEAR=1900
DGENRE=
TTITLE0=Signora, c'è Mrs. Slender nell'anticamera
TTITLE1=Se son geloso a torto
TTITLE2=Sentite pure
TTITLE3=Nell'acqua il buzzone
TTITLE4=Ehi! Bardolf! A chi dico?
TTITLE5=Ah, Signore, se sapesse
TTITLE6=Se mi vedeste il cor
TTITLE7=E il nostro signor Broch
TTITLE8=Stelle, sogno o son desto?
TTITLE9=Presto Betty che già torna l'amico
TTITLE10=Ma siam sicuri
TTITLE11=Per carità celatevi
TTITLE12=Che vedo! O me infelice!
TTITLE13=Orben colui ch'io cerco
TTITLE14=Benedetto quel bastone
TTITLE15=Sorte pettegola, meco la vuoi
TTITLE16=Che dici...?
TTITLE17=Ah che a idea così gradita
TTITLE18=Reca in amor la gelosia
TTITLE19=Siete già qui
TTITLE20=Fate verdi, turchine e bianche e nere
TTITLE21=Or tre volte corbellato
EXTD=
EXTT0=
EXTT1=
EXTT2=
EXTT3=
EXTT4=
EXTT5=
EXTT6=
EXTT7=
EXTT8=
EXTT9=
EXTT10=
EXTT11=
EXTT12=
EXTT13=
EXTT14=
EXTT15=
EXTT16=
EXTT17=
EXTT18=
EXTT19=
EXTT20=
EXTT21=
PLAYORDER=
